<?xml version="1.0" encoding="UTF-8"?><svg width="14mm" height="14mm" version="1.1" viewBox="0 0 14 14" xmlns="http://www.w3.org/2000/svg"><g transform="translate(-1 -1)" fill="none" stroke="#49d095" stroke-linecap="round" stroke-linejoin="round" stroke-width="1.7"><path d="m2 8v6h12v-12l-6 5e-7"/><path d="m4.2525 6.5572 3.4951 0.88562 0.88561-3.4951"/><path d="m2 2c3.0634 1.052 4.4531 3.2157 5.7475 5.4428"/><path d="m3 12 3-3 3 3"/><path d="m8 11 3-3 2 2"/></g><g transform="translate(-1 -1)" fill="none" stroke="#000" stroke-linecap="round" stroke-linejoin="round" stroke-width=".75"><path d="m2 8v6h12v-12l-6 5e-7"/><path d="m4.2525 6.5572 3.4951 0.88562 0.88561-3.4951"/><path d="m2 2c3.0634 1.052 4.4531 3.2157 5.7475 5.4428"/><path d="m3 12 3-3 3 3"/><path d="m8 11 3-3 2 2"/></g></svg>
