<?xml version="1.0" encoding="UTF-8"?><svg width="14mm" height="14mm" version="1.1" viewBox="0 0 14 14" xmlns="http://www.w3.org/2000/svg"><g transform="translate(-1 -1)" fill="none" stroke="#49d095" stroke-linecap="round" stroke-linejoin="round" stroke-width="1.7"><circle cx="8" cy="8" r="6"/><path d="m8 2v12"/><path d="m10.027 2.3528-0.027151 11.28"/><path d="m12.023 3.5487v8.9027"/><path d="m8 8 6-3e-7"/><path d="m8 6h5.6569"/><path d="m8 4h4.0231"/><path d="m8 10h5.6569"/><path d="m8 12h4.0231"/></g><g transform="translate(-1 -1)" fill="none" stroke="#000" stroke-linecap="round" stroke-linejoin="round" stroke-width=".75"><circle cx="8" cy="8" r="6"/><path d="m8 2v12"/><path d="m10.027 2.3528-0.027151 11.28"/><path d="m12.023 3.5487v8.9027"/><path d="m8 8 6-3e-7"/><path d="m8 6h5.6569"/><path d="m8 4h4.0231"/><path d="m8 10h5.6569"/><path d="m8 12h4.0231"/></g></svg>
