<?xml version="1.0" encoding="UTF-8"?><svg width="14mm" height="14mm" version="1.1" viewBox="0 0 14 14" xmlns="http://www.w3.org/2000/svg"><g transform="translate(-1 -1)" fill="none" stroke="#49d095" stroke-linecap="round" stroke-linejoin="round" stroke-width="1.7"><path d="m9 2h5v5"/><path d="m14 2-7 7"/><path d="m12 9v3"/><path d="m10 14h-6"/><path d="m2 12v-6"/><path d="m4 4h3"/><path transform="rotate(90)" d="m12-12a2 2 0 0 1 2 2"/><path transform="scale(-1)" d="m-4-14a2 2 0 0 1 2 2"/><path transform="rotate(-90)" d="m-6 2a2 2 0 0 1 2 2"/></g><g transform="translate(-1 -1)" fill="none" stroke="#000" stroke-linecap="round" stroke-linejoin="round" stroke-width=".75"><path d="m9 2h5v5"/><path d="m14 2-7 7"/><path d="m12 9v3"/><path d="m10 14h-6"/><path d="m2 12v-6"/><path d="m4 4h3"/><path transform="rotate(90)" d="m12-12a2 2 0 0 1 2 2"/><path transform="scale(-1)" d="m-4-14a2 2 0 0 1 2 2"/><path transform="rotate(-90)" d="m-6 2a2 2 0 0 1 2 2"/></g></svg>
