<?xml version="1.0" encoding="UTF-8"?><svg width="14mm" height="14mm" version="1.1" viewBox="0 0 14 14" xmlns="http://www.w3.org/2000/svg"><g transform="translate(-1 -1)" fill="none" stroke="#49d095" stroke-linecap="round" stroke-linejoin="round" stroke-width="1.7"><path d="m13.561 4-1 4-3.4334-2.4752"/><path transform="scale(-1,1)" d="m-12.558 7.8425a5 5 0 0 1 3.9512-4.7318 5 5 0 0 1 5.5417 2.7004 5 5 0 0 1-1.2918 6.0278 5 5 0 0 1-6.1616 0.19231"/></g><g transform="translate(-1 -1)" fill="none" stroke="#000" stroke-linecap="round" stroke-linejoin="round" stroke-width=".75"><path d="m13.561 4-1 4-3.4334-2.4752"/><path transform="scale(-1,1)" d="m-12.558 7.8425a5 5 0 0 1 3.9512-4.7318 5 5 0 0 1 5.5417 2.7004 5 5 0 0 1-1.2918 6.0278 5 5 0 0 1-6.1616 0.19231"/></g></svg>
