<?xml version="1.0" encoding="UTF-8"?><svg width="14mm" height="14mm" version="1.1" viewBox="0 0 14 14" xmlns="http://www.w3.org/2000/svg"><g transform="translate(-1 -1)" fill="none" stroke="#49d095" stroke-linecap="round" stroke-linejoin="round" stroke-width="1.0"><path d="m2.0503 9.7071 2.8284-2.8284"/><path d="m3.4645 11.121 2.8284-2.8284"/><path d="m4.8787 12.536 2.8284-2.8284"/><path d="m6.2929 13.95 2.8284-2.8284"/><path transform="rotate(45)" d="m9.317-5.5886a2 2 0 0 1 1.9952-1.9944 2 2 0 0 1 2.0047 1.9849m-1.0032 4.0123a1 1 0 0 0 0.99669 0.99722m2.0033 1a1 1 0 0 0-0.99669-0.99722m-2.0033-1v-1l1-1v-2m1 5-1-7e-8m-3-1a1 1 0 0 1-0.99669 0.99722m-2.0033 1a1 1 0 0 1 0.99669-0.99722m2.0033-1v-1l-1-1 4e-7 -2m-1 5 1 7e-8m-2 1v1l8 2e-7v-1"/></g></svg>
