<?xml version="1.0" encoding="UTF-8"?><svg width="14mm" height="14mm" version="1.1" viewBox="0 0 14 14" xmlns="http://www.w3.org/2000/svg"><g transform="translate(-1 -1)" fill="none" stroke="#49d095" stroke-linecap="round" stroke-linejoin="round" stroke-width="1.0"><path d="m9.634 11.141a4.95 4.95 0 0 1-2.634 0.75902 4.95 4.95 0 0 1-4.95-4.95 4.95 4.95 0 0 1 4.95-4.95 4.95 4.95 0 0 1 4.95 4.95 4.95 4.95 0 0 1-0.75902 2.634"/><circle cx="7" cy="6.95" r="2.75"/><path d="m13.667 12.061a1.1 1.1 0 0 1 0 1.5556 1.1 1.1 0 0 1-1.5556 0"/><path d="m11.191 9.584 2.4759 2.4773"/><path d="m9.634 11.141 2.4773 2.4759"/></g></svg>
