<?xml version="1.0" encoding="UTF-8"?><svg width="14mm" height="14mm" version="1.1" viewBox="0 0 14 14" xmlns="http://www.w3.org/2000/svg"><g transform="translate(-1 -1)" fill="none" stroke="#49d095" stroke-linecap="round" stroke-linejoin="round" stroke-width="1.0"><path transform="rotate(45)" d="m9.3137-1.5147-3e-7 5-3-7e-7v-5"/><path transform="rotate(45)" d="m9.3137 3.4853-3-3h3l-3 3"/><path transform="rotate(45)" d="m16.314-1.5147 1e-6 5-3-1.6e-6 -1e-6 -5"/><path transform="rotate(45)" d="m16.314 3.4853-3-3 3 1.34e-6 -3 3"/><path transform="rotate(45)" d="m9.3137-1.5147a2 2 0 0 1 2-2 2 2 0 0 1 2 2"/><path transform="rotate(45)" d="m6.3137-1.5147a5 5 0 0 1 5-5 5 5 0 0 1 5 5"/></g></svg>
