<?xml version="1.0" encoding="UTF-8"?><svg width="14mm" height="14mm" version="1.1" viewBox="0 0 14 14" xmlns="http://www.w3.org/2000/svg"><g transform="translate(-1 -1)" fill="none" stroke="#49d095" stroke-linecap="round" stroke-linejoin="round" stroke-width="1.0"><path d="m2 9v5h5l7-7-5-5z"/><path d="m7 4 5 5"/><path d="m8.5 5.5-5 5"/><path d="m5.5 12.5 5-5"/><path d="m2 9a1.0607 1.0607 0 0 1 1.0245-0.27452 1.0607 1.0607 0 0 1 0.75 0.75 1.0607 1.0607 0 0 1-0.27452 1.0245"/><path d="m5.5 12.5a1.0607 1.0607 0 0 1 1.0245-0.27452 1.0607 1.0607 0 0 1 0.75 0.75 1.0607 1.0607 0 0 1-0.27452 1.0245"/><path d="m3.5 10.5a1.4142 1.4142 0 0 1 1.366-0.36602 1.4142 1.4142 0 0 1 1 1 1.4142 1.4142 0 0 1-0.36603 1.366"/><path d="m2 11.441a2.5594 2.5594 0 0 1 2.5594 2.5594"/></g></svg>
